<?xml version="1.0" encoding="UTF-8"?>
<svg width="16px" height="16px" viewBox="0 0 16 16" version="1.1" xmlns="http://www.w3.org/2000/svg" xmlns:xlink="http://www.w3.org/1999/xlink">
    <!-- Generator: Sketch 64 (93537) - https://sketch.com -->
    <title>Shape备份</title>
    <desc>Created with Sketch.</desc>
    <g id="页面-1" stroke="none" stroke-width="1">
        <g id="账号管理-选中" transform="translate(-4.000000, -4.000000)">
            <g id="甲功知识图谱查询平台" transform="translate(4.000000, 4.000000)">
                <path d="M15.917,6.62 C15.8644898,6.54893794 15.7855302,6.50206692 15.698,6.49 L13.792,6.2 C13.6799754,5.84776942 13.5370879,5.50611106 13.365,5.179 C13.4896667,5.00566667 13.677,4.761 13.927,4.445 C14.177,4.129 14.354,3.898 14.458,3.752 C14.511001,3.68313916 14.5401366,3.59889177 14.541,3.512 C14.5457351,3.42927682 14.519737,3.34772117 14.468,3.283 C13.9477525,2.64336863 13.3729252,2.05013879 12.75,1.51 C12.6781148,1.44659041 12.585849,1.41110358 12.49,1.41 C12.3972957,1.40568333 12.3068947,1.43967412 12.24,1.504 L10.76,2.615 C10.4579341,2.46222171 10.1442962,2.33348974 9.822,2.23 L9.531,0.312 C9.5249741,0.223579501 9.48127229,0.142002792 9.411,0.088 C9.33904483,0.0294994857 9.24872035,-0.00167131671 9.156,4.38017678e-17 L6.844,4.38017678e-17 C6.66209179,-0.0149734541 6.49906536,0.111969792 6.469,0.292 C6.33189076,0.931370796 6.23172486,1.57810865 6.169,2.229 C5.84206349,2.33476531 5.5248826,2.46859691 5.221,2.629 L3.781,1.51 C3.70437677,1.44732443 3.60896897,1.4121186 3.51,1.41 C3.35733333,1.41 3.02933333,1.65833333 2.526,2.155 C2.15721301,2.50145272 1.81429572,2.87445047 1.5,3.271 C1.4453581,3.33979219 1.41261307,3.42339652 1.406,3.511 C1.4086838,3.60354447 1.44411967,3.69213414 1.506,3.761 C1.97266667,4.32366667 2.34433333,4.803 2.621,5.199 C2.45361082,5.50377838 2.31758072,5.82475582 2.215,6.157 L0.281,6.448 C0.19884824,6.46480971 0.12683287,6.51378016 0.081,6.584 C0.0289188373,6.65283969 0.000504245116,6.73668027 -1.49395285e-05,6.823 L-1.49395285e-05,9.135 C-0.000773094541,9.22369294 0.0284789593,9.31003936 0.083,9.38 C0.135510211,9.45106206 0.214469845,9.49793308 0.302,9.51 L2.208,9.791 C2.31252484,10.1491342 2.45570044,10.4948346 2.635,10.822 C2.51033333,10.9953333 2.323,11.24 2.073,11.556 C1.823,11.872 1.646,12.103 1.542,12.249 C1.48899896,12.3178608 1.4598634,12.4021082 1.459,12.489 C1.45766823,12.5743507 1.48320573,12.6579598 1.532,12.728 C2.05162171,13.3614689 2.62691854,13.9471405 3.251,14.478 C3.31814902,14.5504785 3.41220085,14.5920783 3.511,14.593 C3.60647551,14.5959239 3.69946824,14.5623035 3.771,14.499 L5.24,13.385 C5.5420596,13.5380675 5.85569399,13.6671324 6.178,13.771 L6.47,15.688 C6.4760259,15.7764205 6.51972771,15.8579972 6.59,15.912 C6.66169073,15.9702776 6.75162152,16.0014348 6.844,16 L9.157,16 C9.33890821,16.0149735 9.50193464,15.8880302 9.532,15.708 C9.66899416,15.068608 9.76915904,14.4218768 9.832,13.771 C10.1589662,13.6653145 10.4761539,13.5314801 10.78,13.371 L12.219,14.5 C12.2984542,14.5566648 12.3925233,14.5892939 12.49,14.594 C12.6426667,14.594 12.969,14.3473333 13.469,13.854 C13.839422,13.5044278 14.1839932,13.1284407 14.5,12.729 C14.5607465,12.6642872 14.5943861,12.5787567 14.594,12.49 C14.5928964,12.394151 14.5574096,12.3018852 14.494,12.23 C13.994,11.6186667 13.6223333,11.1396667 13.379,10.793 C13.5385601,10.4879343 13.6742979,10.1709901 13.785,9.845 L15.712,9.553 C15.7969104,9.53775667 15.871984,9.48867004 15.92,9.417 C15.9719289,9.34776153 16.0000181,9.26354809 16.0000181,9.177 L16.0000181,6.865 C16.0008521,6.77629442 15.9715915,6.68992267 15.917,6.62 Z M9.886,9.885 C9.39235684,10.395015 8.70970159,10.6780671 8,10.667 C6.52744711,10.6664479 5.334,9.47255299 5.334,8 C5.334,6.52744701 6.52744711,5.33355214 8,5.333 C8.70733238,5.333 9.38569426,5.61398669 9.88585379,6.11414621 C10.3860133,6.61430574 10.667,7.29266762 10.667,8 C10.6780508,8.70920681 10.3953918,9.39142486 9.886,9.885 L9.886,9.885 Z" id="Shape备份"></path>
            </g>
        </g>
    </g>
</svg>