<?xml version="1.0" encoding="UTF-8"?>
<svg width="16px" height="16px" viewBox="0 0 16 16" version="1.1" xmlns="http://www.w3.org/2000/svg" xmlns:xlink="http://www.w3.org/1999/xlink">
    <!-- Generator: Sketch 64 (93537) - https://sketch.com -->
    <title>日期</title>
    <desc>Created with Sketch.</desc>
    <g id="日期" stroke="none" stroke-width="1" fill="none" fill-rule="evenodd">
        <path d="M10.0007754,0 C10.553103,0 11.000853,0.44771525 11.000853,1 L11,2 L13.8664512,2 C15.0860822,2.04434061 16.0404662,3.08809263 16,4.33333333 L16,16 L0.00124069682,16 L0.00124069682,4.33333333 C-0.0392254541,3.08809263 0.915158511,2.04434061 2.13478953,2 L5,2 L5.00038772,1 C5.00038772,0.44771525 5.44813769,0 6.00046526,0 C6.55279284,0 7.0005428,0.44771525 7.0005428,1 L7,2 L9,2 L9.00069789,1 C9.00069789,0.44771525 9.44844786,0 10.0007754,0 Z M14.0010856,7 L2.00015509,7 L2.00015509,14 L14.0010856,14 L14.0010856,7 Z M5.64843797,11.537 L5.64843797,12.537 L2.64820534,12.537 L2.64820534,11.537 L5.64843797,11.537 Z M9.50573705,11.537 L9.50573705,12.537 L6.50550442,12.537 L6.50550442,11.537 L9.50573705,11.537 Z M13.3630361,11.537 L13.3630361,12.537 L10.3628035,12.537 L10.3628035,11.537 L13.3630361,11.537 Z M5.64843797,8.537 L5.64843797,9.537 L2.64820534,9.537 L2.64820534,8.537 L5.64843797,8.537 Z M9.50573705,8.537 L9.50573705,9.537 L6.50550442,9.537 L6.50550442,8.537 L9.50573705,8.537 Z M13.3630361,8.537 L13.3630361,9.537 L10.3628035,9.537 L10.3628035,8.537 L13.3630361,8.537 Z M13.0010856,4 L3.00015509,4 C2.44787034,4 2.00015509,4.44771525 2.00015509,5 L2.00015509,5 L2.00015509,6 L14.0010856,6 L14.0010856,5 C14.0010856,4.44771525 13.5533704,4 13.0010856,4 L13.0010856,4 Z" id="形状结合" fill="#737373"></path>
    </g>
</svg>