<?xml version="1.0" encoding="UTF-8"?>
<svg width="16px" height="18px" viewBox="0 0 16 18" version="1.1" xmlns="http://www.w3.org/2000/svg" xmlns:xlink="http://www.w3.org/1999/xlink">
    <!-- Generator: Sketch 64 (93537) - https://sketch.com -->
    <title>反馈备份</title>
    <desc>Created with Sketch.</desc>
    <g id="反馈备份" stroke="none" stroke-width="1" fill="none" fill-rule="evenodd">
        <g fill="#0066CC" fill-rule="nonzero" id="路径-2">
            <path d="M9.62,0.82 C10.1722847,0.82 10.62,1.26771525 10.62,1.82 C10.62,2.37228475 10.1722847,2.82 9.62,2.82 L3,2.82 C2.44771525,2.82 2,3.26771525 2,3.82 L2,15.82 L13,15.82 L13,6.7 C13,6.14771525 13.4477153,5.7 14,5.7 C14.5522847,5.7 15,6.14771525 15,6.7 L15,17.82 L0,17.82 L0,3.82 C0,2.16314575 1.34314575,0.82 3,0.82 L9.62,0.82 Z M11,8.82 C11.5128358,8.82 11.9355072,9.20604019 11.9932723,9.70337887 L12,9.82 C12,10.3722847 11.5522847,10.82 11,10.82 L5,10.82 C4.48716416,10.82 4.06449284,10.4339598 4.00672773,9.93662113 L4,9.82 C4,9.26771525 4.44771525,8.82 5,8.82 L11,8.82 Z M8,5.82 C8.51283584,5.82 8.93550716,6.20604019 8.99327227,6.70337887 L9,6.82 C9,7.37228475 8.55228475,7.82 8,7.82 L5,7.82 C4.48716416,7.82 4.06449284,7.43395981 4.00672773,6.93662113 L4,6.82 C4,6.26771525 4.44771525,5.82 5,5.82 L8,5.82 Z M15.6541137,0.613377774 C15.8434264,0.801144374 15.949912,1.05674024 15.949912,1.32337777 C15.949912,1.59001531 15.8434264,1.84561117 15.6541137,2.03337777 L11.4141137,6.27337777 C11.0240763,6.66110137 10.3941512,6.66110137 10.0041137,6.27337777 C9.81480106,6.08561117 9.70831539,5.83001531 9.70831539,5.56337777 C9.70831539,5.29674024 9.81480106,5.04114437 10.0041137,4.85337777 L14.2441137,0.613377774 C14.6341512,0.225654179 15.2640763,0.225654179 15.6541137,0.613377774 Z"></path>
        </g>
    </g>
</svg>