<?xml version="1.0" encoding="UTF-8"?>
<svg width="20px" height="18px" viewBox="0 0 20 18" version="1.1" xmlns="http://www.w3.org/2000/svg" xmlns:xlink="http://www.w3.org/1999/xlink">
    <!-- Generator: Sketch 64 (93537) - https://sketch.com -->
    <title>隐藏密码</title>
    <g stroke="none" stroke-width="1" fill="" fill-rule="evenodd">
        <path d="M11.866556,8.57086191 L13.0993738,9.75069922 C13.1581766,9.50829074 13.1978368,9.25956584 13.1978368,8.99988389 C13.1978368,7.23689551 11.7635168,5.80259697 10.0005284,5.80259697 C9.69235619,5.80259697 9.40072695,5.86013219 9.11814263,5.94205221 L10.3458687,7.11666881 C11.0985531,7.25421194 11.6957765,7.83038058 11.866556,8.57086191 L11.866556,8.57086191 Z M10.8848908,12.0572 L9.65841084,10.8831634 C8.90323418,10.7463078 8.30278817,10.1688931 8.13336219,9.42514611 L6.90179044,8.24730685 C6.84288022,8.49033838 6.8032415,8.73968633 6.8032415,8.99990538 C6.8032415,10.7628723 8.23754005,12.1971923 10.0005284,12.1971923 C10.3094311,12.1971923 10.6016834,12.1389911 10.8848908,12.0572 Z M2.44087705,1.52404316 C2.68453163,1.26895888 3.08929773,1.25999989 3.34513396,1.50352556 L3.34513396,1.50352556 L18.0526452,15.5716181 C18.3071279,15.8158957 18.3166885,16.2207693 18.0724324,16.4758535 C17.9464908,16.6069943 17.7789125,16.6733821 17.6101095,16.6733821 C17.445466,16.6736737 17.2871006,16.6102318 17.1681969,16.4963497 L17.1681969,16.4963497 L2.46068567,2.42827859 C2.20555842,2.18402245 2.19664239,1.77912744 2.44087705,1.52404316 Z M3.22357523,4.72968752 L4.14892982,5.61402839 C3.14687592,6.51441811 2.3021308,7.63598973 1.70808714,8.91746974 L1.70808714,8.91746974 L1.69850509,8.94307914 C1.69655001,8.95775299 1.68759102,8.97242683 1.68759102,8.9872081 L1.68759102,8.9872081 C1.68759102,9.00437413 1.69266134,9.01344055 1.69341329,9.02042298 C1.69468087,9.02684682 1.69788205,9.03580581 1.69914963,9.04661246 C1.70297385,9.05817107 1.70684104,9.06899921 1.70995628,9.08115938 C3.29963,12.4855774 6.6178741,14.7550175 10.0005284,14.7550175 C11.0441332,14.7550175 12.0813785,14.5377028 13.0629578,14.1404992 L13.0629578,14.1404992 L14.0592109,15.1112504 C12.7777738,15.713544 11.3959402,16.0690894 10.0005499,16.0690894 C6.10375241,16.0690894 2.2951054,13.5030571 0.523781073,9.6329647 L0.523781073,9.6329647 L0.433030967,9.36058548 C0.425962599,9.33372998 0.411911802,9.06448748 0.411911802,9.06448748 C0.406819999,9.01975696 0.406175467,8.98394246 0.410644222,8.93921194 C0.410644222,8.93921194 0.426564163,8.79017466 0.442591525,8.71532301 C0.439991913,8.73072732 0.439991913,8.66225654 0.47518336,8.56130135 C0.478910022,8.55044309 0.483183721,8.53978036 0.487988062,8.52935404 L0.487988062,8.52935404 L0.506373335,8.47287425 L0.506373335,8.47287425 L0.533363112,8.41164102 C1.18373887,6.99077023 2.11480831,5.74194651 3.22357523,4.72968752 L3.22357523,4.72968752 Z M10.0005284,1.96586985 C13.8993025,1.96586985 17.7073265,4.56533186 19.4766742,8.43529534 C19.4882113,8.45963717 19.4990395,8.49033838 19.5086215,8.52166263 C19.5143677,8.5354163 19.5199113,8.54925376 19.5252504,8.56317049 L19.5252504,8.56317049 L19.5434167,8.63044133 C19.5548941,8.68157102 19.5643091,8.74058151 19.5668872,8.77936801 C19.5726021,8.79017467 19.5923892,8.88614548 19.5923892,9.00186046 C19.5923892,9.11312816 19.5732466,9.20523179 19.5610649,9.26659123 L19.5610649,9.26659123 C19.5642876,9.26586076 19.5579282,9.34331203 19.527227,9.43281604 C19.5233598,9.44437464 19.5188911,9.45582583 19.5137993,9.46800748 C19.5016176,9.50953683 19.4843441,9.5562654 19.4568656,9.60610921 C18.8116891,11.0186655 17.8844653,12.2611728 16.7788351,13.2702092 L16.7788351,13.2702092 L15.852836,12.3846007 C16.8536653,11.4848555 17.6963909,10.3651531 18.2898545,9.08625118 C18.2924541,9.07606757 18.2955908,9.06710858 18.2981904,9.05877263 C18.298792,9.05557146 18.3000596,9.0523488 18.3006826,9.04921207 C18.3032822,9.03580581 18.3051514,9.02364564 18.308374,9.01021789 C18.3051514,8.99679014 18.3020146,8.97242683 18.298792,8.94692485 C18.2969228,8.94170414 18.2949678,8.93536624 18.2937002,8.9296299 C18.2917451,8.9257842 18.2904775,8.91996192 18.2886084,8.91362403 C16.7187003,5.52390133 13.3928722,3.24477173 10.0005284,3.24477173 C8.95754674,3.24477173 7.9216764,3.46217237 6.94009713,3.85873143 L6.94009713,3.85873143 L5.9438655,2.90654282 C7.22528106,2.30287415 8.60649165,1.96586985 10.0005284,1.96586985 Z" id="形状" fill="" fill-rule="nonzero"></path>
    </g>
</svg>