<?xml version="1.0" encoding="UTF-8"?>
<svg width="20px" height="18px" viewBox="0 0 20 18" version="1.1" xmlns="http://www.w3.org/2000/svg" xmlns:xlink="http://www.w3.org/1999/xlink">
    <!-- Generator: Sketch 64 (93537) - https://sketch.com -->
    <title>显示密码</title>
    <desc>Created with Sketch.</desc>
    <g id="显示密码" stroke="none" stroke-width="1" fill="" fill-rule="evenodd">
        <path d="M9.87447751,1.91756696 C14.1041293,1.91756696 17.253201,4.03123351 19.3216927,8.25856662 L19.4786978,8.58790499 C19.6093773,8.86935984 19.6019929,9.19553276 19.45871,9.47078529 C17.1931042,13.823109 14.0566391,15.9992708 10.0493145,15.9992708 C5.43306357,15.8364111 2.25967666,13.6764693 0.529153796,9.51944539 L0.402026762,9.20394089 C0.304806739,8.9543878 0.31174743,8.67626678 0.421294201,8.43187368 C2.36794294,4.08900254 5.51900404,1.91756696 9.87447751,1.91756696 Z M9.96374833,3.18141524 C6.62325968,3.18141524 3.94264582,4.94510209 1.92190675,8.47247578 C1.75047188,8.77173007 1.74534009,9.13820328 1.90832836,9.44214056 L1.90832836,9.44214056 L2.08026268,9.75318911 C3.88451273,12.919395 6.54086335,14.6005623 10.0493145,14.7966911 C13.0458676,14.7966911 15.6801119,13.0339743 17.9520477,9.50854081 C18.1543231,9.19466367 18.1648737,8.79423727 17.9794078,8.47014376 L17.9794078,8.47014376 L17.7941673,8.15447766 C15.799173,4.83910271 13.1890333,3.18141524 9.96374833,3.18141524 Z M10.037683,12.1488894 C11.8976188,12.1488894 13.1674484,10.626031 13.1674484,8.96917673 C13.1674484,7.31232248 11.8264332,5.75429408 10.0302012,5.75429408 C8.23396926,5.75429408 6.77285302,7.33219891 6.77285302,8.98905316 C6.77285302,10.6459074 8.17774729,12.1488894 10.037683,12.1488894 Z M10.0493145,10.9019674 C11.4787174,10.9019674 11.8803917,9.70239633 11.8803917,8.98864302 C11.8803917,8.27488971 11.4041222,7.0575609 10.0493145,7.0575609 C8.6945069,7.0575609 8.08684479,8.27488971 8.08684479,8.98864302 C8.08684479,9.70239633 8.61991164,10.9019674 10.0493145,10.9019674 Z" id="形状结合" fill=""></path>
    </g>
</svg>