<svg id="组_53550" data-name="组 53550" xmlns="http://www.w3.org/2000/svg" width="202.753" height="105.162" viewBox="0 0 202.753 105.162">
  <path id="路径_15036" data-name="路径 15036" d="M1014.967,133.961a9.728,9.728,0,0,0-10.937,0V120.5H997.3v44.168h6.73V141.532c0-1.683,1.262-3.365,3.786-3.365a3.825,3.825,0,0,1,3.365,1.683c.842,1.262.842,2.944.842,4.627v20.191h6.73V144.056c0-5.468-.421-7.572-3.786-10.1" transform="translate(-877.415 -92.737)"/>
  <path id="路径_15037" data-name="路径 15037" d="M999.5,139.805v5.889c-.421,2.524-1.262,5.048-4.207,5.048s-3.786-2.524-4.206-5.048V133.5c0-2.524,1.262-5.048,4.206-5.048s4.207,2.524,4.207,4.627v6.73m6.73-5.048c-.841-9.254-6.31-11.358-10.516-11.358-6.31,0-10.1,3.786-10.516,11.358v10.1c.42,7.151,4.627,11.357,10.516,11.357,6.31,0,10.1-4.206,10.516-11.357v-10.1Z" transform="translate(-916.214 -83.438)"/>
  <path id="路径_15038" data-name="路径 15038" d="M1010.23,135.7v-2.1c0-2.524,1.262-4.627,4.206-4.627,3.366,0,3.786,2.945,4.207,5.048v2.1h-8.413m7.992,8.413v1.262c0,1.683-.841,5.048-4.206,5.048-2.944,0-3.786-2.524-4.206-5.048v-4.207h14.723v-6.73a13.279,13.279,0,0,0-2.945-7.992,9.851,9.851,0,0,0-7.572-3.365c-5.889,0-9.675,3.786-10.516,11.358v10.1c.421,6.73,4.627,11.357,10.516,11.357s10.1-4.206,10.516-11.778Z" transform="translate(-857.534 -83.118)"/>
  <path id="路径_15039" data-name="路径 15039" d="M1124.861,118.107l41.645,48.8-41.645,47.954H1015.913l-41.645-48.375,41.645-48.375h108.948Zm1.262-4.207H1014.23L968.8,166.481l45.43,52.581h111.893l45.43-52.161Z" transform="translate(-968.8 -113.9)"/>
  <path id="路径_15040" data-name="路径 15040" d="M985.43,126.489H988.8c3.365,0,5.468,1.683,5.468,5.048v1.683c0,2.1-.842,5.468-5.048,5.468h-3.365v-12.2m15.564,35.335-.842-10.937c-.42-4.627-1.683-7.572-4.206-9.254,1.683-1.262,4.206-3.786,4.206-9.254,0-8.413-5.468-11.358-11.778-11.778H978.7v43.748h6.73V144.577h3.786c2.1,0,4.627,1.683,5.048,7.151l.841,10.1a9.17,9.17,0,0,0,.421,2.524h6.73C1001.836,164.768,1001.415,163.506,1001.415,161.824Z" transform="translate(-937.056 -92.416)"/>
  <path id="路径_15041" data-name="路径 15041" d="M1005.7,145.074v1.262c0,2.524-.842,5.048-4.207,5.048-2.945,0-3.786-2.944-4.207-5.048v-12.2c.421-2.524,1.262-4.627,4.207-5.048,2.945,0,4.207,2.524,4.207,4.627V135.4h6.73v-.841c-.842-9.254-6.31-11.358-10.516-11.358-6.31,0-10.1,3.786-10.517,11.358v10.1c.42,7.151,4.627,11.358,10.517,11.358,6.309,0,10.1-3.786,10.516-11.358v-.841h-6.73" transform="translate(-896.333 -84.08)"/>
</svg>
