<?xml version="1.0" standalone="no"?><!DOCTYPE svg PUBLIC "-//W3C//DTD SVG 1.1//EN" "http://www.w3.org/Graphics/SVG/1.1/DTD/svg11.dtd"><svg t="1608891025798" class="icon" viewBox="0 0 1024 1024" version="1.1" xmlns="http://www.w3.org/2000/svg" p-id="6264" width="32" height="32" xmlns:xlink="http://www.w3.org/1999/xlink"><defs><style type="text/css"></style></defs><path d="M979.34971907 910.58384609l0.1449883-0.30792749-273.25459046-267.18303338c53.79893931-63.44135077 84.73253543-142.28598092 87.26637833-222.59568319 5.05940078-97.81047886-33.1926517-198.84522103-102.28302229-270.20569394-59.01575595-62.28282533-142.00290855-104.14439572-227.5915653-114.89838406-16.61289595-2.26319811-33.62623573-3.39410674-50.57329514-3.39410673-84.70629945 0-167.25572554 27.5367277-232.42588902 77.4831211-75.53889723 56.3120696-127.68358923 140.84024059-143.07720273 231.8776952-15.26381445 84.84714521 1.25794598 175.88045731 45.30676825 249.68363763 30.12856592 51.30099826 73.02990945 95.37881818 124.03816946 127.4488463 46.82293147 29.62317819 100.69643618 48.98394736 155.72432381 55.90334071 16.51209456 2.23696213 33.44258389 3.36787077 50.3247438 3.36787077 78.13625881 0 155.44401313-23.88854624 218.35512103-67.34774946l272.91214194 266.97590724 5.04697321 4.6506719 0.1449883-0.12565651c8.99617795 7.22870171 20.39225727 11.2400443 32.19982715 11.24004428 27.89574631 0 50.58986525-22.26881995 50.58986524-49.63708505 0-12.13344831-4.63686349-23.85954858-12.85286638-32.93719616M702.3571925 546.16614448c-44.70886417 89.38734985-134.57674661 154.75497356-234.60347499 170.60012202-46.82293147 7.97159407-96.17003996 5.50403152-142.14513516-7.09614099-89.71598996-24.07219807-166.50592897-87.79385953-205.4801612-170.5725052-45.12173557-91.90738434-39.49480923-207.66603222 14.34279362-294.9475998 47.91793824-80.64662743 132.38535222-137.29286051 225.85032502-151.48790418l6.63079764-0.98039698c3.48662308-0.56476389 6.99948213-1.10329183 10.43225242-1.49406977 11.55625684-1.18476142 23.31135477-1.77576129 34.91041769-1.7757613 47.73428641 0 94.88585799 10.05666371 136.44226256 29.11502874 76.02771488 34.09434076 136.64110365 97.45836445 166.26566266 173.88790401 32.48980372 81.62012021 27.78942157 176.83185664-12.64435942 254.74856178z" fill="#333333" p-id="6265"></path></svg>