<?xml version="1.0" encoding="UTF-8"?>
<svg width="16px" height="16px" viewBox="0 0 16 16" version="1.1" xmlns="http://www.w3.org/2000/svg" xmlns:xlink="http://www.w3.org/1999/xlink">
    <!-- Generator: Sketch 64 (93537) - https://sketch.com -->
    <title>机构名</title>
    <desc>Created with Sketch.</desc>
    <g id="机构名" stroke="none" stroke-width="1" fill="" fill-rule="evenodd">
        <path d="M13.8568466,0 C15.1804395,0.172345378 16.1246352,1.3547354 15.986609,2.66704225 L15.986609,16 L0.013391026,16 L0.013391026,2.66704225 C-0.124635164,1.3547354 0.819560528,0.172345378 2.14315342,0 L13.8568466,0 Z M12.9731914,1.92132549 L2.97319143,1.92132549 C2.42090668,1.92132549 1.97319143,2.36904074 1.97319143,2.92132549 L1.97319143,2.92132549 L1.97319143,14.1575439 L6.978,14.157 L6.979,8.892 L9.565,8.892 L9.564,14.157 L13.9731914,14.1575439 L13.9731914,2.92132549 C13.9731914,2.36904074 13.5254762,1.92132549 12.9731914,1.92132549 L12.9731914,1.92132549 Z M9.565,5.892 L9.565,7.892 L6.979,7.892 L6.979,5.892 L9.565,5.892 Z" id="形状结合" fill=""></path>
    </g>
</svg>