<?xml version="1.0" encoding="UTF-8"?>
<svg width="16px" height="15px" viewBox="0 0 16 15" version="1.1" xmlns="http://www.w3.org/2000/svg" xmlns:xlink="http://www.w3.org/1999/xlink">
    <!-- Generator: Sketch 64 (93537) - https://sketch.com -->
    <title>ic_Archives备份</title>
    <desc>Created with Sketch.</desc>
    <g id="页面-1" stroke="none" stroke-width="1">
        <g id="pattern-选中" transform="translate(-4.000000, -5.000000)">
            <g id="甲功知识图谱查询平台" transform="translate(4.000000, 5.000000)">
                <path d="M15.74,6.717 L13.26,0.649 C13.185228,0.458777486 13.0522213,0.297069394 12.88,0.187 C12.720851,0.0706345227 12.5300786,0.00541617922 12.333,-1.07913678e-16 L3.667,-1.07913678e-16 C3.46992136,0.00541617922 3.27914899,0.0706345227 3.12,0.187 C2.94782461,0.297121177 2.81483169,0.458812571 2.74,0.649 L0.26,6.717 C0.089593967,7.14780401 0.00140611545,7.60672002 -1.84817019e-05,8.07 L-1.84817019e-05,13.37 C-0.00134303558,13.554942 0.0705591456,13.7328999 0.2,13.865 C0.319177747,13.9986319 0.489946144,14.0747312 0.669,14.0740052 L15.333,14.0740052 C15.5120539,14.0747312 15.6828223,13.9986319 15.802,13.865 C15.9314409,13.7328999 16.003343,13.554942 16.0020185,13.37 L16.0020185,8.07 C16.0005162,7.6070519 15.9123289,7.14847787 15.742,6.718 L15.74,6.717 Z M10.656,7.74 L9.667,9.851 L6.334,9.851 L5.344,7.74 L2.052,7.74 C2.06323306,7.71148676 2.07193334,7.68203968 2.078,7.652 C2.08285231,7.62210157 2.0902116,7.59266441 2.1,7.564 L4.313,2.111 L11.688,2.111 L13.9,7.564 C13.907,7.586 13.916,7.615 13.926,7.652 C13.936,7.689 13.945,7.718 13.952,7.74 L10.656,7.74 Z" id="ic_Archives备份"></path>
            </g>
        </g>
    </g>
</svg>