<?xml version="1.0" encoding="UTF-8"?>
<svg width="16px" height="18px" viewBox="0 0 16 18" version="1.1" xmlns="http://www.w3.org/2000/svg" xmlns:xlink="http://www.w3.org/1999/xlink">
    <!-- Generator: Sketch 64 (93537) - https://sketch.com -->
    <title>手机号</title>
    <desc>Created with Sketch.</desc>
    <g id="手机号" stroke="none" stroke-width="1" fill="" fill-rule="evenodd">
        <path d="M16,2.25698266 L16,15.7430173 C15.8529735,17.1080075 14.6013558,18.1077264 13.1859823,17.9906898 L2.81401774,17.9906898 C1.39864419,18.1077264 0.147026475,17.1080075 0,15.7430173 L0,2.25698266 C0.147026475,0.891992495 1.39864419,-0.107726384 2.81401774,0.0093102139 L13.1859823,0.0093102139 C14.6013558,-0.107726384 15.8529735,0.891992495 16,2.25698266 Z M14.123,14 L2.123,14 L2.123,15 C2.123,15.5522847 2.57071525,16 3.123,16 L13.123,16 C13.6752847,16 14.123,15.5522847 14.123,15 L14.123,14 Z M14.123,5 L2.123,5 L2.123,13 L14.123,13 L14.123,5 Z M13.123,2 L3.123,2 C2.57071525,2 2.123,2.44771525 2.123,3 L2.123,3 L2.123,4 L14.123,4 L14.123,3 C14.123,2.44771525 13.6752847,2 13.123,2 L13.123,2 Z M7.123,14.447 L9.123,14.447 L9.123,15.447 L7.123,15.447 L7.123,14.447 Z" id="形状结合" fill=""></path>
    </g>
</svg>