<?xml version="1.0" encoding="UTF-8"?>
<svg width="16px" height="16px" viewBox="0 0 16 16" version="1.1" xmlns="http://www.w3.org/2000/svg" xmlns:xlink="http://www.w3.org/1999/xlink">
    <!-- Generator: Sketch 64 (93537) - https://sketch.com -->
    <title>密码</title>
    <desc>Created with Sketch.</desc>
    <g id="密码" stroke="none" stroke-width="1" fill="none" fill-rule="evenodd">
        <path d="M7.9226143,0 C10.6841747,0 12.923002,1.8802 12.923002,4.2 L12.923,5 L13.8664512,5 C15.0860822,5.04645206 16.0404662,6.13990657 16,7.44444444 L16,16 L0.00124069682,16 L0.00124069682,7.44444444 C-0.0392254541,6.13990657 0.915158511,5.04645206 2.13478953,5 L2.922,5 L2.92222658,4.2 C2.92222658,1.8802 5.16105392,0 7.9226143,0 Z M13.0010856,7 L3.00015509,7 C2.44787034,7 2.00015509,7.44771525 2.00015509,8 L2.00015509,8 L2.00015509,14 L14.0010856,14 L14.0010856,8 C14.0010856,7.44771525 13.5533704,7 13.0010856,7 L13.0010856,7 Z M9.00069789,7.998 L9.00069789,12.998 L7.20055831,12.998 L7.20055831,7.998 L9.00069789,7.998 Z M7.71959856,1.97445942 C5.63133529,1.97445942 5.05567032,3.39557648 5.01721499,3.88048938 L5.01510336,3.93039613 L5.01510336,5.00001058 L10.8457079,5.00001058 L10.8457079,3.93039613 C10.7899101,3.15901699 9.88520491,1.97445942 7.71959856,1.97445942 Z" id="形状结合" fill="#737373"></path>
    </g>
</svg>