<?xml version="1.0" encoding="UTF-8"?>
<svg width="16px" height="17px" viewBox="0 0 16 17" version="1.1" xmlns="http://www.w3.org/2000/svg" xmlns:xlink="http://www.w3.org/1999/xlink">
    <!-- Generator: Sketch 64 (93537) - https://sketch.com -->
    <title>形状备份</title>
    <desc>Created with Sketch.</desc>
    <g id="页面-1" stroke="none" stroke-width="1">
        <g id="知识查询选定" transform="translate(-1.000000, 0.000000)" fill-rule="nonzero">
            <g id="甲功知识图谱查询平台" transform="translate(0.026000, 0.026000)">
                <path d="M15.086,0 L2.864,0 C1.88742738,-0.0612255759 1.04397393,0.67601521 0.974,1.652 L0.974,14.352 C1.04657621,15.326125 1.88906538,16.0607399 2.864,16 L15.084,16 C16.0603833,16.0606693 16.9035001,15.3237228 16.974,14.348 L16.974,1.652 C16.9050704,0.676320089 16.0621955,-0.0611954222 15.086,0 Z M12.665,13.915 C12.5004185,14.0844766 12.2742401,14.18011 12.038,14.18011 C11.8017599,14.18011 11.5755815,14.0844766 11.411,13.915 L10.79,13.282 C10.2135842,13.6095691 9.5619907,13.7818572 8.899,13.782 C6.70105322,13.751284 4.94396858,11.9449562 4.974,9.747 C4.94508569,7.54943514 6.70245207,5.74417315 8.9,5.714 C11.0980972,5.74362828 12.8563547,7.54888599 12.828,9.747 C12.8302279,10.5767563 12.5794095,11.3874685 12.109,12.071 L12.666,12.639 C13.0113692,12.9938354 13.0113692,13.5591646 12.666,13.914 L12.665,13.915 Z M8.899,7.515 C7.99178983,7.4856673 7.1574796,8.00961916 6.78988422,8.83953743 C6.42228885,9.6694557 6.59490584,10.6394054 7.22625573,11.2915465 C7.85760562,11.9436876 8.82145549,12.1476302 9.66284452,11.8071082 C10.5042336,11.4665863 11.0549333,10.6496842 11.055,9.742 C11.0733689,8.53321065 10.1087767,7.53818122 8.9,7.519 L8.899,7.515 Z M12.059,3.964 L5.859,3.964 C5.36194373,3.964 4.95900002,3.56105627 4.95900002,3.064 C4.95900002,2.56694373 5.36194373,2.164 5.859,2.164 L12.059,2.164 C12.5560563,2.164 12.959,2.56694373 12.959,3.064 C12.959,3.56105627 12.5560563,3.964 12.059,3.964 Z" id="形状备份"></path>
            </g>
        </g>
    </g>
</svg>