<?xml version="1.0" encoding="UTF-8"?>
<svg width="16px" height="21px" viewBox="0 0 16 21" version="1.1" xmlns="http://www.w3.org/2000/svg" xmlns:xlink="http://www.w3.org/1999/xlink">
    <!-- Generator: Sketch 64 (93537) - https://sketch.com -->
    <g id="角色备份-2" stroke="none" stroke-width="1" fill="" fill-rule="evenodd">
        <path d="M10.553646,0 C11.5563136,-4.17862063e-15 12.3691363,0.812822691 12.3691363,1.81549029 C12.3691363,2.15066478 12.2763496,2.47929683 12.1010558,2.76497849 L11.1069276,4.38513946 C10.9430912,4.65214867 10.7316038,4.88001443 10.4871835,5.06049978 L11.064,6.762 L15.7212006,12.0979469 C16.1569872,12.597263 16.1054864,13.3553136 15.6061703,13.7911002 C15.5964693,13.7995669 15.5866326,13.807877 15.5766641,13.8160271 L13.919,15.17 L14.2736765,16.2115229 C14.40375,16.5945309 14.2688796,17.0123678 13.9518388,17.2489138 L13.8513442,17.3142228 L7.50506142,20.8797361 C7.22001229,21.0398844 6.87155181,21.0374675 6.58875158,20.8733806 L6.58875158,20.8733806 L0.454502867,17.3141544 C0.0768654143,17.0950408 -0.0958669608,16.6415051 0.0403349485,16.2266921 L0.0403349485,16.2266921 L3.71603988,5.03009167 C3.49502969,4.85959566 3.30241722,4.64950567 3.14961167,4.40612993 L2.11920063,2.76497849 C1.58908767,1.92065948 1.84380201,0.806462216 2.68812103,0.276349261 C2.9757105,0.0957837377 3.30839981,5.06468242e-16 3.64797544,0 L10.553646,0 Z M8.9057504,6.57378385 L5.35514385,6.57378385 L2.39458356,16.0375116 L6.97721307,18.8653909 L12.1536588,16.0375116 L8.9057504,6.57378385 Z M9.4363967,1.86590587 L4.8079512,1.86590587 L5.55961423,3.72198648 L8.69150323,3.72198648 L9.4363967,1.86590587 Z" id="形状结合" fill=""></path>
    </g>
</svg>